<svg xmlns="http://www.w3.org/2000/svg" viewBox="-429 229 100 94"><path d="M-358.3 272.4l-19.7-11.8h-.1c-.1-.1-.2-.1-.4-.1h-.1c-.1 0-.2 0-.5-.1h-.1c-.1 0-.4 0-.5.1h-.1c-.1 0-.2.1-.4.1h-.1l-20.1 11.3c-.7.4-1.2 1.2-1.2 1.9l-.2 23c0 .8.4 1.5 1.1 1.9l19.7 11.8c.4.2.7.4 1.2.4.4 0 .7-.1 1.1-.2l20.1-11.3c.1-.1.2-.1.2-.2l.1-.1c.1-.1.2-.4.4-.5.1-.1.1-.2.2-.5v-.1-.5l.2-23c.3-.9-.2-1.6-.8-2.1zm-38.8 5.4l15.3 9-.2 17.8-15.3-9 .2-17.8zm17.8-12.5l15.3 9-15.6 8.7-15.3-9 15.6-8.7zm2 21.6l15.6-8.7-.2 17.8-15.6 8.7.2-17.8zm42.7 25.4c-.4.7-1.2 1.1-1.9 1.1-.4 0-.8-.1-1.2-.4-1.1-.6-1.4-2-.8-3.1.6-1.1 2-1.4 3.1-.8 1 .8 1.4 2.1.8 3.2zm-7.7-4.6c-.5.7-1.2 1.1-1.9 1.1-.4 0-.8-.1-1.2-.4-1.1-.6-1.4-2-.8-3.1.6-1.1 2-1.4 3.1-.8 1 .7 1.4 2.2.8 3.2zm-7.8-4.6c-.5.7-1.2 1.1-1.9 1.1-.4 0-.8-.1-1.2-.4-1.1-.6-1.4-2-.8-3.1.6-1.1 2-1.4 3.1-.8 1.1.7 1.4 2.1.8 3.2zm-70.7 5.8c.6 1.1.2 2.5-.8 3.1-.4.2-.7.2-1.1.2-.8 0-1.5-.4-1.9-1.2-.6-1.1-.2-2.5.8-3.1.9-.4 2.4 0 3 1zm7.8-4.4c.6 1.1.2 2.5-.8 3.1-.4.2-.7.2-1.1.2-.8 0-1.5-.4-1.9-1.2-.6-1.1-.2-2.5.8-3.1 1-.4 2.4 0 3 1zm7.9-4.4c.6 1.1.2 2.5-.8 3.1-.4.2-.7.2-1.1.2-.8 0-1.5-.4-1.9-1.2-.6-1.1-.2-2.5.8-3.1.9-.4 2.4 0 3 1zm23.6-55.5c0-1.2 1-2.3 2.3-2.3 1.2 0 2.3 1 2.3 2.3 0 1.2-1 2.3-2.3 2.3-1.3-.1-2.3-1-2.3-2.3zm0-8.9c0-1.2 1-2.3 2.3-2.3 1.2 0 2.3 1 2.3 2.3 0 1.2-1 2.3-2.3 2.3-1.3-.1-2.3-1.1-2.3-2.3zm0 17.9c0-1.2 1-2.3 2.3-2.3 1.2 0 2.3 1 2.3 2.3 0 1.2-1 2.3-2.3 2.3-1.3 0-2.3-1-2.3-2.3z"/></svg>