<svg xmlns="http://www.w3.org/2000/svg" viewBox="-429 229 100 80"><path d="M-331.1 286.8h-6.3v-48c0-1.1-.9-2-2-2h-79.2c-1.1 0-2 .9-2 2v48h-6.3c-1.1 0-2.1.9-2.1 2.1v2.4c.5 3.5 3.3 7.4 7.2 7.9h.3l84.5.1c4.4 0 7.6-4.2 8-8.1V288.9c0-1.2-.9-2.1-2.1-2.1zm-85.5-46h75.2v45.9h-75.1v-45.9zm79.5 54.3l-84.4-.1c-1.5-.3-3-2.2-3.4-4.1h35.1c.7 1.2 2 2.1 3.5 2.1h15.2c1.5 0 2.8-.8 3.5-2.1h34.3c-.2 2-1.8 4.2-3.8 4.2zm-53.1-39.6c-.8-.8-2.1-.8-2.9 0l-8.7 8.7c-.8.8-.8 2.1 0 2.9l8.7 8.7c.4.4.9.6 1.5.6s1.1-.2 1.5-.6c.8-.8.8-2.1 0-2.9l-7.2-7.2 7.2-7.2c.8-.9.8-2.2-.1-3zm20.6 20.3c.4.4.9.6 1.5.6.5 0 1.1-.2 1.5-.6l8.7-8.7c.8-.8.8-2.1 0-2.9l-8.7-8.7c-.8-.8-2.1-.8-2.9 0-.8.8-.8 2.1 0 2.9l7.2 7.2-7.2 7.2c-1 .9-1 2.2-.1 3zm-17.6 4.5c.3.1.6.2.9.2.8 0 1.5-.4 1.9-1.2l12.5-25c.5-1 .1-2.3-.9-2.8s-2.3-.1-2.8.9l-12.5 25c-.6 1.1-.1 2.4.9 2.9z"/></svg>