<svg xmlns="http://www.w3.org/2000/svg" viewBox="-429 218 100 125"><path d="M-379 234.2c-25.4 0-46 20.6-46 46s20.6 46 46 46 46-20.6 46-46-20.6-46-46-46zm0 82c-19.9 0-36-16.1-36-36s16.1-36 36-36 36 16.1 36 36-16.1 36-36 36z"/><circle cx="-392.5" cy="269.1" r="6.7"/><circle cx="-365.5" cy="269.1" r="6.7"/><path d="M-358.2 288.1c-2.1-1.3-4.9-.6-6.2 1.5-2.7 4.4-8.5 7.3-14.7 7.3s-11.9-2.9-14.7-7.3c-1.3-2.1-4.1-2.8-6.2-1.5s-2.8 4.1-1.5 6.2c4.4 7.2 12.9 11.6 22.3 11.6s18-4.4 22.3-11.6c1.5-2.1.9-4.9-1.3-6.2z"/></svg>